<svg width="423" height="196" viewBox="0 0 423 196" fill="none" xmlns="http://www.w3.org/2000/svg">
<path d="M68.085 33.5352C87.1499 33.5352 102.605 48.9907 102.605 68.0557C102.605 79.2526 97.2729 89.2026 89.0107 95.5098C102.65 100.121 112.468 113.024 112.468 128.22C112.468 147.285 97.013 162.74 77.9482 162.74H56.249V95.6719H33.5352V33.5352H68.085Z" fill="#F29500"/>
<path d="M149.716 49.935V75.535H145.854V49.935H149.716Z" fill="black"/>
<path d="M179.524 49.935V75.535H175.974L162.961 56.76H162.724V75.535H158.861V49.935H162.436L175.461 68.735H175.699V49.935H179.524Z" fill="black"/>
<path d="M202.64 56.66C202.507 55.4766 201.957 54.56 200.99 53.91C200.024 53.2516 198.807 52.9225 197.34 52.9225C196.29 52.9225 195.382 53.0891 194.615 53.4225C193.849 53.7475 193.253 54.1975 192.828 54.7725C192.411 55.3391 192.203 55.985 192.203 56.71C192.203 57.3183 192.345 57.8433 192.628 58.285C192.92 58.7266 193.299 59.0975 193.765 59.3975C194.24 59.6891 194.749 59.935 195.29 60.135C195.832 60.3266 196.353 60.485 196.853 60.61L199.353 61.26C200.17 61.46 201.007 61.7308 201.865 62.0725C202.724 62.4141 203.52 62.8641 204.253 63.4225C204.986 63.9808 205.578 64.6725 206.028 65.4975C206.486 66.3225 206.715 67.31 206.715 68.46C206.715 69.91 206.34 71.1975 205.59 72.3225C204.849 73.4475 203.77 74.335 202.353 74.985C200.945 75.635 199.24 75.96 197.24 75.96C195.324 75.96 193.665 75.6558 192.265 75.0475C190.865 74.4391 189.77 73.5766 188.978 72.46C188.186 71.335 187.749 70.0016 187.665 68.46H191.54C191.615 69.385 191.915 70.1558 192.44 70.7725C192.974 71.3808 193.653 71.835 194.478 72.135C195.311 72.4266 196.224 72.5725 197.215 72.5725C198.307 72.5725 199.278 72.4016 200.128 72.06C200.986 71.71 201.661 71.2266 202.153 70.61C202.645 69.985 202.89 69.2558 202.89 68.4225C202.89 67.6641 202.674 67.0433 202.24 66.56C201.815 66.0766 201.236 65.6766 200.503 65.36C199.778 65.0433 198.957 64.7641 198.04 64.5225L195.015 63.6975C192.965 63.1391 191.34 62.3183 190.14 61.235C188.949 60.1516 188.353 58.7183 188.353 56.935C188.353 55.46 188.753 54.1725 189.553 53.0725C190.353 51.9725 191.436 51.1183 192.803 50.51C194.17 49.8933 195.711 49.585 197.428 49.585C199.161 49.585 200.69 49.8891 202.015 50.4975C203.349 51.1058 204.399 51.9433 205.165 53.01C205.932 54.0683 206.332 55.285 206.365 56.66H202.64Z" fill="black"/>
<path d="M211.477 53.26V49.935H231.289V53.26H223.302V75.535H219.452V53.26H211.477Z" fill="black"/>
<path d="M243.05 49.935V75.535H239.187V49.935H243.05Z" fill="black"/>
<path d="M250.932 53.26V49.935H270.745V53.26H262.757V75.535H258.907V53.26H250.932Z" fill="black"/>
<path d="M295.105 49.935H298.98V66.7725C298.98 68.5641 298.559 70.1516 297.718 71.535C296.876 72.91 295.693 73.9933 294.168 74.785C292.643 75.5683 290.855 75.96 288.805 75.96C286.764 75.96 284.98 75.5683 283.455 74.785C281.93 73.9933 280.747 72.91 279.905 71.535C279.064 70.1516 278.643 68.5641 278.643 66.7725V49.935H282.505V66.46C282.505 67.6183 282.759 68.6475 283.268 69.5475C283.784 70.4475 284.514 71.1558 285.455 71.6725C286.397 72.1808 287.514 72.435 288.805 72.435C290.105 72.435 291.226 72.1808 292.168 71.6725C293.118 71.1558 293.843 70.4475 294.343 69.5475C294.851 68.6475 295.105 67.6183 295.105 66.46V49.935Z" fill="black"/>
<path d="M306.853 53.26V49.935H326.666V53.26H318.678V75.535H314.828V53.26H306.853Z" fill="black"/>
<path d="M354.294 62.735C354.294 65.4683 353.794 67.8183 352.794 69.785C351.794 71.7433 350.423 73.2516 348.681 74.31C346.948 75.36 344.977 75.885 342.769 75.885C340.552 75.885 338.573 75.36 336.831 74.31C335.098 73.2516 333.731 71.7391 332.731 69.7725C331.731 67.8058 331.231 65.46 331.231 62.735C331.231 60.0016 331.731 57.6558 332.731 55.6975C333.731 53.7308 335.098 52.2225 336.831 51.1725C338.573 50.1141 340.552 49.585 342.769 49.585C344.977 49.585 346.948 50.1141 348.681 51.1725C350.423 52.2225 351.794 53.7308 352.794 55.6975C353.794 57.6558 354.294 60.0016 354.294 62.735ZM350.469 62.735C350.469 60.6516 350.131 58.8975 349.456 57.4725C348.789 56.0391 347.873 54.9558 346.706 54.2225C345.548 53.4808 344.235 53.11 342.769 53.11C341.294 53.11 339.977 53.4808 338.819 54.2225C337.66 54.9558 336.744 56.0391 336.069 57.4725C335.402 58.8975 335.069 60.6516 335.069 62.735C335.069 64.8183 335.402 66.5766 336.069 68.01C336.744 69.435 337.66 70.5183 338.819 71.26C339.977 71.9933 341.294 72.36 342.769 72.36C344.235 72.36 345.548 71.9933 346.706 71.26C347.873 70.5183 348.789 69.435 349.456 68.01C350.131 66.5766 350.469 64.8183 350.469 62.735Z" fill="black"/>
<path d="M145.854 110.535V84.935H154.979C156.97 84.935 158.62 85.2975 159.929 86.0225C161.237 86.7475 162.216 87.7391 162.866 88.9975C163.516 90.2475 163.841 91.6558 163.841 93.2225C163.841 94.7975 163.512 96.2141 162.854 97.4725C162.204 98.7225 161.22 99.7141 159.904 100.447C158.595 101.172 156.949 101.535 154.966 101.535H148.691V98.26H154.616C155.874 98.26 156.895 98.0433 157.679 97.61C158.462 97.1683 159.037 96.5683 159.404 95.81C159.77 95.0516 159.954 94.1891 159.954 93.2225C159.954 92.2558 159.77 91.3975 159.404 90.6475C159.037 89.8975 158.458 89.31 157.666 88.885C156.883 88.46 155.849 88.2475 154.566 88.2475H149.716V110.535H145.854Z" fill="black"/>
<path d="M194.127 97.735C194.127 100.468 193.627 102.818 192.627 104.785C191.627 106.743 190.256 108.252 188.514 109.31C186.781 110.36 184.81 110.885 182.602 110.885C180.385 110.885 178.406 110.36 176.664 109.31C174.931 108.252 173.564 106.739 172.564 104.772C171.564 102.806 171.064 100.46 171.064 97.735C171.064 95.0016 171.564 92.6558 172.564 90.6975C173.564 88.7308 174.931 87.2225 176.664 86.1725C178.406 85.1141 180.385 84.585 182.602 84.585C184.81 84.585 186.781 85.1141 188.514 86.1725C190.256 87.2225 191.627 88.7308 192.627 90.6975C193.627 92.6558 194.127 95.0016 194.127 97.735ZM190.302 97.735C190.302 95.6516 189.964 93.8975 189.289 92.4725C188.622 91.0391 187.706 89.9558 186.539 89.2225C185.381 88.4808 184.068 88.11 182.602 88.11C181.127 88.11 179.81 88.4808 178.652 89.2225C177.493 89.9558 176.577 91.0391 175.902 92.4725C175.235 93.8975 174.902 95.6516 174.902 97.735C174.902 99.8183 175.235 101.577 175.902 103.01C176.577 104.435 177.493 105.518 178.652 106.26C179.81 106.993 181.127 107.36 182.602 107.36C184.068 107.36 185.381 106.993 186.539 106.26C187.706 105.518 188.622 104.435 189.289 103.01C189.964 101.577 190.302 99.8183 190.302 97.735Z" fill="black"/>
<path d="M202.814 110.535V84.935H211.939C213.923 84.935 215.568 85.2766 216.877 85.96C218.193 86.6433 219.177 87.5891 219.827 88.7975C220.477 89.9975 220.802 91.385 220.802 92.96C220.802 94.5266 220.473 95.9058 219.814 97.0975C219.164 98.2808 218.181 99.2016 216.864 99.86C215.556 100.518 213.91 100.847 211.927 100.847H205.014V97.5225H211.577C212.827 97.5225 213.843 97.3433 214.627 96.985C215.418 96.6266 215.998 96.1058 216.364 95.4225C216.731 94.7391 216.914 93.9183 216.914 92.96C216.914 91.9933 216.727 91.1558 216.352 90.4475C215.985 89.7391 215.406 89.1975 214.614 88.8225C213.831 88.4391 212.802 88.2475 211.527 88.2475H206.677V110.535H202.814ZM215.452 98.985L221.777 110.535H217.377L211.177 98.985H215.452Z" fill="black"/>
<path d="M228.463 88.26V84.935H248.276V88.26H240.288V110.535H236.438V88.26H228.463Z" fill="black"/>
<path d="M272.988 84.935H276.863V101.772C276.863 103.564 276.443 105.152 275.601 106.535C274.759 107.91 273.576 108.993 272.051 109.785C270.526 110.568 268.738 110.96 266.688 110.96C264.647 110.96 262.863 110.568 261.338 109.785C259.813 108.993 258.63 107.91 257.788 106.535C256.947 105.152 256.526 103.564 256.526 101.772V84.935H260.388V101.46C260.388 102.618 260.643 103.647 261.151 104.547C261.668 105.447 262.397 106.156 263.338 106.672C264.28 107.181 265.397 107.435 266.688 107.435C267.988 107.435 269.109 107.181 270.051 106.672C271.001 106.156 271.726 105.447 272.226 104.547C272.734 103.647 272.988 102.618 272.988 101.46V84.935Z" fill="black"/>
<path d="M304.028 93.0225C303.786 92.2641 303.461 91.585 303.053 90.985C302.653 90.3766 302.174 89.86 301.616 89.435C301.057 89.0016 300.42 88.6725 299.703 88.4475C298.995 88.2225 298.216 88.11 297.366 88.11C295.924 88.11 294.624 88.4808 293.466 89.2225C292.307 89.9641 291.391 91.0516 290.716 92.485C290.049 93.91 289.716 95.6558 289.716 97.7225C289.716 99.7975 290.053 101.552 290.728 102.985C291.403 104.418 292.328 105.506 293.503 106.247C294.678 106.989 296.016 107.36 297.516 107.36C298.907 107.36 300.12 107.077 301.153 106.51C302.195 105.943 302.999 105.143 303.566 104.11C304.141 103.068 304.428 101.843 304.428 100.435L305.428 100.622H298.103V97.435H308.166V100.347C308.166 102.497 307.707 104.364 306.791 105.947C305.882 107.522 304.624 108.739 303.016 109.597C301.416 110.456 299.582 110.885 297.516 110.885C295.199 110.885 293.166 110.352 291.416 109.285C289.674 108.218 288.316 106.706 287.341 104.747C286.366 102.781 285.878 100.447 285.878 97.7475C285.878 95.7058 286.161 93.8725 286.728 92.2475C287.295 90.6225 288.091 89.2433 289.116 88.11C290.149 86.9683 291.361 86.0975 292.753 85.4975C294.153 84.8891 295.682 84.585 297.341 84.585C298.724 84.585 300.011 84.7891 301.203 85.1975C302.403 85.6058 303.47 86.185 304.403 86.935C305.345 87.685 306.124 88.5766 306.741 89.61C307.357 90.635 307.774 91.7725 307.991 93.0225H304.028Z" fill="black"/>
<path d="M333.051 84.935H336.926V101.772C336.926 103.564 336.505 105.152 335.664 106.535C334.822 107.91 333.639 108.993 332.114 109.785C330.589 110.568 328.801 110.96 326.751 110.96C324.709 110.96 322.926 110.568 321.401 109.785C319.876 108.993 318.693 107.91 317.851 106.535C317.009 105.152 316.589 103.564 316.589 101.772V84.935H320.451V101.46C320.451 102.618 320.705 103.647 321.214 104.547C321.73 105.447 322.459 106.156 323.401 106.672C324.343 107.181 325.459 107.435 326.751 107.435C328.051 107.435 329.172 107.181 330.114 106.672C331.064 106.156 331.789 105.447 332.289 104.547C332.797 103.647 333.051 102.618 333.051 101.46V84.935Z" fill="black"/>
<path d="M346.414 110.535V84.935H362.464V88.26H350.276V96.06H361.626V99.3725H350.276V107.21H362.614V110.535H346.414ZM357.001 82.635L354.439 81.08L351.864 82.635H348.489V82.4475L352.876 79.1311H355.989L360.389 82.4475V82.635H357.001Z" fill="black"/>
<path d="M385.106 91.66C384.972 90.4766 384.422 89.56 383.456 88.91C382.489 88.2516 381.272 87.9225 379.806 87.9225C378.756 87.9225 377.847 88.0891 377.081 88.4225C376.314 88.7475 375.718 89.1975 375.293 89.7725C374.876 90.3391 374.668 90.985 374.668 91.71C374.668 92.3183 374.81 92.8433 375.093 93.285C375.385 93.7266 375.764 94.0975 376.231 94.3975C376.706 94.6891 377.214 94.935 377.756 95.135C378.297 95.3266 378.818 95.485 379.318 95.61L381.818 96.26C382.635 96.46 383.472 96.7308 384.331 97.0725C385.189 97.4141 385.985 97.8641 386.718 98.4225C387.451 98.9808 388.043 99.6725 388.493 100.497C388.951 101.322 389.181 102.31 389.181 103.46C389.181 104.91 388.806 106.197 388.056 107.322C387.314 108.447 386.235 109.335 384.818 109.985C383.41 110.635 381.706 110.96 379.706 110.96C377.789 110.96 376.131 110.656 374.731 110.047C373.331 109.439 372.235 108.577 371.443 107.46C370.651 106.335 370.214 105.002 370.131 103.46H374.006C374.081 104.385 374.381 105.156 374.906 105.772C375.439 106.381 376.118 106.835 376.943 107.135C377.776 107.427 378.689 107.572 379.681 107.572C380.772 107.572 381.743 107.402 382.593 107.06C383.451 106.71 384.126 106.227 384.618 105.61C385.11 104.985 385.356 104.256 385.356 103.422C385.356 102.664 385.139 102.043 384.706 101.56C384.281 101.077 383.701 100.677 382.968 100.36C382.243 100.043 381.422 99.7641 380.506 99.5225L377.481 98.6975C375.431 98.1391 373.806 97.3183 372.606 96.235C371.414 95.1516 370.818 93.7183 370.818 91.935C370.818 90.46 371.218 89.1725 372.018 88.0725C372.818 86.9725 373.901 86.1183 375.268 85.51C376.635 84.8933 378.176 84.585 379.893 84.585C381.626 84.585 383.156 84.8891 384.481 85.4975C385.814 86.1058 386.864 86.9433 387.631 88.01C388.397 89.0683 388.797 90.285 388.831 91.66H385.106Z" fill="black"/>
<path d="M154.141 145.535H145.854V119.935H154.404C156.912 119.935 159.066 120.447 160.866 121.472C162.666 122.489 164.045 123.952 165.004 125.86C165.97 127.76 166.454 130.039 166.454 132.697C166.454 135.364 165.966 137.656 164.991 139.572C164.024 141.489 162.624 142.964 160.791 143.997C158.958 145.022 156.741 145.535 154.141 145.535ZM149.716 142.16H153.929C155.879 142.16 157.499 141.793 158.791 141.06C160.083 140.318 161.049 139.247 161.691 137.847C162.333 136.439 162.654 134.722 162.654 132.697C162.654 130.689 162.333 128.985 161.691 127.585C161.058 126.185 160.112 125.122 158.854 124.397C157.595 123.672 156.033 123.31 154.166 123.31H149.716V142.16Z" fill="black"/>
<path d="M174.777 145.535V119.935H190.827V123.26H178.639V131.06H189.989V134.372H178.639V142.21H190.977V145.535H174.777Z" fill="black"/>
<path d="M212.342 145.535V119.935H221.717C223.533 119.935 225.037 120.235 226.229 120.835C227.421 121.427 228.312 122.231 228.904 123.247C229.496 124.256 229.792 125.393 229.792 126.66C229.792 127.727 229.596 128.627 229.204 129.36C228.812 130.085 228.287 130.668 227.629 131.11C226.979 131.543 226.262 131.86 225.479 132.06V132.31C226.329 132.352 227.158 132.627 227.967 133.135C228.783 133.635 229.458 134.347 229.992 135.272C230.525 136.197 230.792 137.322 230.792 138.647C230.792 139.956 230.483 141.131 229.867 142.172C229.258 143.206 228.317 144.027 227.042 144.635C225.767 145.235 224.137 145.535 222.154 145.535H212.342ZM216.204 142.222H221.779C223.629 142.222 224.954 141.864 225.754 141.147C226.554 140.431 226.954 139.535 226.954 138.46C226.954 137.652 226.75 136.91 226.342 136.235C225.933 135.56 225.35 135.022 224.592 134.622C223.842 134.222 222.95 134.022 221.917 134.022H216.204V142.222ZM216.204 131.01H221.379C222.246 131.01 223.025 130.843 223.717 130.51C224.417 130.177 224.971 129.71 225.379 129.11C225.796 128.502 226.004 127.785 226.004 126.96C226.004 125.902 225.633 125.014 224.892 124.297C224.15 123.581 223.012 123.222 221.479 123.222H216.204V131.01Z" fill="black"/>
<path d="M242.755 119.935V145.535H238.893V119.935H242.755Z" fill="black"/>
<path d="M250.638 123.26V119.935H270.45V123.26H262.463V145.535H258.613V123.26H250.638Z" fill="black"/>
<path d="M298.511 128.26H294.611C294.461 127.427 294.182 126.693 293.774 126.06C293.365 125.427 292.865 124.889 292.274 124.447C291.682 124.006 291.019 123.672 290.286 123.447C289.561 123.222 288.79 123.11 287.974 123.11C286.499 123.11 285.178 123.481 284.011 124.222C282.853 124.964 281.936 126.052 281.261 127.485C280.594 128.918 280.261 130.668 280.261 132.735C280.261 134.818 280.594 136.577 281.261 138.01C281.936 139.443 282.857 140.527 284.024 141.26C285.19 141.993 286.503 142.36 287.961 142.36C288.769 142.36 289.536 142.252 290.261 142.035C290.994 141.81 291.657 141.481 292.249 141.047C292.84 140.614 293.34 140.085 293.749 139.46C294.165 138.827 294.453 138.102 294.611 137.285L298.511 137.297C298.303 138.556 297.899 139.714 297.299 140.772C296.707 141.822 295.944 142.731 295.011 143.497C294.086 144.256 293.028 144.843 291.836 145.26C290.644 145.677 289.344 145.885 287.936 145.885C285.719 145.885 283.744 145.36 282.011 144.31C280.278 143.252 278.911 141.739 277.911 139.772C276.919 137.806 276.424 135.46 276.424 132.735C276.424 130.002 276.924 127.656 277.924 125.697C278.924 123.731 280.29 122.222 282.024 121.172C283.757 120.114 285.728 119.585 287.936 119.585C289.294 119.585 290.561 119.781 291.736 120.172C292.919 120.556 293.982 121.122 294.924 121.872C295.865 122.614 296.644 123.522 297.261 124.597C297.878 125.664 298.294 126.885 298.511 128.26Z" fill="black"/>
<path d="M328.89 132.735C328.89 135.468 328.39 137.818 327.39 139.785C326.39 141.743 325.02 143.252 323.278 144.31C321.545 145.36 319.574 145.885 317.365 145.885C315.149 145.885 313.17 145.36 311.428 144.31C309.695 143.252 308.328 141.739 307.328 139.772C306.328 137.806 305.828 135.46 305.828 132.735C305.828 130.002 306.328 127.656 307.328 125.697C308.328 123.731 309.695 122.222 311.428 121.172C313.17 120.114 315.149 119.585 317.365 119.585C319.574 119.585 321.545 120.114 323.278 121.172C325.02 122.222 326.39 123.731 327.39 125.697C328.39 127.656 328.89 130.002 328.89 132.735ZM325.065 132.735C325.065 130.652 324.728 128.897 324.053 127.472C323.386 126.039 322.47 124.956 321.303 124.222C320.145 123.481 318.832 123.11 317.365 123.11C315.89 123.11 314.574 123.481 313.415 124.222C312.257 124.956 311.34 126.039 310.665 127.472C309.999 128.897 309.665 130.652 309.665 132.735C309.665 134.818 309.999 136.577 310.665 138.01C311.34 139.435 312.257 140.518 313.415 141.26C314.574 141.993 315.89 142.36 317.365 142.36C318.832 142.36 320.145 141.993 321.303 141.26C322.47 140.518 323.386 139.435 324.053 138.01C324.728 136.577 325.065 134.818 325.065 132.735Z" fill="black"/>
<path d="M341.089 119.935V145.535H337.226V119.935H341.089Z" fill="black"/>
<path d="M370.896 119.935V145.535H367.346L354.334 126.76H354.096V145.535H350.234V119.935H353.809L366.834 138.735H367.071V119.935H370.896Z" fill="black"/>
</svg>
