<svg width="257" height="262" viewBox="0 0 257 262" fill="none" xmlns="http://www.w3.org/2000/svg">
<path d="M253.154 162.691C235.99 232.872 166.249 275.579 97.4033 258.077C28.5724 240.575 -13.3272 169.498 3.85162 99.3175C21.0015 29.1365 90.7427 -13.5704 159.574 3.91703C228.419 21.4189 270.318 92.5104 253.154 162.691ZM185.161 112.339C187.718 94.9095 174.701 85.5299 156.901 79.2864L162.68 55.6712L148.579 52.087L142.958 75.0808C139.245 74.1413 135.445 73.2453 131.66 72.3637L137.323 49.2254L123.236 45.6412L117.457 69.242C114.394 68.5338 111.375 67.8256 108.456 67.0886V67.0163L89.0233 62.0736L85.2668 77.4221C85.2668 77.4221 95.7273 79.8645 95.5106 80.0235C101.218 81.4832 102.258 85.3275 102.084 88.377L95.5106 115.273C95.9007 115.374 96.4208 115.519 96.9698 115.75C96.5074 115.634 96.0018 115.504 95.4816 115.374L86.2637 153.052C85.5702 154.815 83.7931 157.474 79.8054 156.462C79.9499 156.665 69.5617 153.861 69.5617 153.861L62.5688 170.308L80.9179 174.976C84.3277 175.843 87.6797 176.768 90.9738 177.621L85.1368 201.511L99.2237 205.095L105.003 181.465C108.846 182.535 112.588 183.517 116.244 184.442L110.479 207.956L124.58 211.541L130.417 187.708C154.459 192.348 172.548 190.469 180.148 168.313C186.274 150.465 179.844 140.174 167.188 133.454C176.406 131.286 183.341 125.115 185.19 112.354L185.161 112.339ZM152.942 158.385C148.579 176.233 119.104 166.579 109.54 164.165L117.284 132.529C126.849 134.957 157.493 139.77 152.942 158.385ZM157.305 112.079C153.332 128.309 128.785 120.071 120.824 118.048L127.845 89.3453C135.806 91.3686 161.437 95.1407 157.305 112.079Z" fill="#F8991D"/>
</svg>
